<svg version="1.1" id="Layer_1" xmlns="http://www.w3.org/2000/svg" xmlns:xlink="http://www.w3.org/1999/xlink" x="0px" y="0px"
	 width="100%" viewBox="0 0 512 512" enable-background="new 0 0 512 512" xml:space="preserve">
<path fill="#000000" opacity="1.000000" stroke="none" 
	d="
M302.000000,513.000000 
	C201.357773,513.000000 101.215538,513.000000 1.036655,513.000000 
	C1.036655,342.399414 1.036655,171.798813 1.036655,1.099110 
	C171.558914,1.099110 342.117889,1.099110 512.838440,1.099110 
	C512.838440,171.666550 512.838440,342.333252 512.838440,513.000000 
	C442.798798,513.000000 372.649384,513.000000 302.000000,513.000000 
M373.078857,341.011414 
	C358.401764,340.989868 343.724670,340.968323 329.011658,340.016724 
	C329.008453,331.850983 328.715698,323.670837 329.120514,315.525391 
	C329.332520,311.260712 327.888580,307.860535 325.774963,304.547729 
	C322.099854,298.787506 312.673187,296.623871 307.091644,300.561890 
	C302.805023,303.586243 298.716705,306.991608 294.973663,310.668732 
	C280.780792,324.611786 266.693024,338.663940 252.703827,352.811584 
	C241.017868,364.629944 229.503693,376.618591 217.954483,388.571503 
	C211.948395,394.787445 211.356400,400.008209 215.866714,407.186493 
	C217.081833,409.120361 218.535507,410.960602 220.143143,412.582703 
	C232.576126,425.127838 245.065170,437.617523 257.553741,450.107483 
	C272.039520,464.595001 286.456451,479.153137 301.088257,493.491882 
	C305.719666,498.030548 311.005585,501.909729 318.198517,499.306213 
	C325.639893,496.612793 329.663818,491.636932 329.104492,482.183594 
	C328.616821,473.941559 329.002869,465.647858 329.002869,457.001434 
	C331.604462,457.001434 333.572906,457.001465 335.541382,457.001434 
	C370.870148,457.000916 406.198944,457.000092 441.527710,457.000183 
	C448.249969,457.000183 453.147858,454.187256 456.043030,447.945007 
	C459.614899,440.243805 463.183502,432.532898 467.051270,424.978638 
	C476.902557,405.737640 486.758667,386.495819 496.917694,367.416687 
	C506.068237,350.231506 505.479370,333.841095 493.927856,317.269287 
	C480.629974,295.231964 467.222961,273.259460 454.077057,251.131851 
	C446.746826,238.793304 438.131714,238.936188 428.120300,244.656631 
	C405.331726,257.677826 383.111572,271.692505 360.631256,285.255157 
	C351.520355,290.751862 349.323212,300.233673 354.968323,309.426147 
	C361.362000,319.837585 367.592499,330.349213 373.818024,341.013947 
	C373.818024,341.013947 374.014587,341.090210 373.078857,341.011414 
M178.450409,32.272331 
	C176.193466,36.321945 174.095398,40.470219 171.652451,44.404331 
	C160.240463,62.782066 148.584183,81.009727 137.319016,99.476357 
	C131.061172,109.734619 134.566025,117.899185 143.533096,123.635818 
	C165.968124,137.988495 188.696503,151.884720 211.378662,165.847946 
	C219.301178,170.725067 228.597122,168.588623 233.505661,160.824997 
	C240.205963,150.227509 246.693481,139.495483 253.760986,129.304596 
	C260.545013,142.068619 267.329041,154.832642 274.378265,168.095657 
	C265.717224,172.666489 257.817261,177.042130 249.728516,181.035446 
	C243.853134,183.936081 240.833313,188.771027 241.219269,194.844421 
	C241.662064,201.811890 245.319031,206.974014 252.675125,209.090775 
	C259.679260,211.106216 266.491547,213.781403 273.414612,216.087158 
	C282.856110,219.231659 292.325256,222.293152 301.777954,225.404068 
	C321.314941,231.833755 340.864410,238.226059 360.379272,244.722168 
	C376.535004,250.100082 384.033630,245.581314 389.040619,229.456680 
	C393.639954,214.644882 398.323578,199.858810 403.054626,185.088486 
	C409.768219,164.128815 416.591400,143.204224 423.301727,122.243484 
	C425.998138,113.820801 422.124268,105.321358 413.977966,102.616798 
	C407.811615,100.569572 402.145813,102.702301 396.612701,105.786102 
	C390.415466,109.240044 383.902893,112.128258 377.460205,115.295738 
	C375.737213,112.066849 374.309845,109.523315 373.002106,106.919685 
	C365.650421,92.282791 358.382812,77.603401 350.978973,62.993019 
	C343.821228,48.868279 336.267609,34.937576 329.394104,20.677643 
	C324.656830,10.849652 317.935242,5.686152 306.574463,6.907824 
	C298.508026,7.775241 290.338409,7.908916 282.212494,7.954180 
	C259.054108,8.083182 235.893188,8.150898 212.735916,7.944901 
	C197.919113,7.813097 184.763214,18.739351 178.450409,32.272331 
M138.236145,342.311676 
	C146.106689,329.539978 153.977219,316.768280 161.739975,304.171448 
	C170.656265,309.207611 179.211029,314.330994 188.044418,318.917755 
	C193.198441,321.594055 198.492828,320.203430 202.740433,316.617004 
	C207.192825,312.857666 209.319214,307.775818 208.006866,301.830963 
	C206.459625,294.821930 204.644531,287.872498 202.998825,280.884674 
	C195.632385,249.606216 188.212540,218.340057 180.964188,187.034210 
	C177.815201,173.433594 169.291901,171.420441 158.988739,173.297668 
	C143.750229,176.074127 128.738525,180.110764 113.653152,183.706863 
	C103.809914,186.053314 94.016594,188.608368 84.184151,191.001083 
	C70.395134,194.356613 56.563519,197.541122 42.805019,201.016129 
	C36.741951,202.547501 32.917957,206.636826 32.057693,212.925827 
	C31.080843,220.067093 33.177479,225.802490 39.922276,229.537521 
	C46.781982,233.336212 53.455929,237.481934 60.071125,241.695633 
	C60.880375,242.211105 61.522926,244.506729 61.064625,245.270218 
	C51.227436,261.658112 41.181870,277.920654 31.261349,294.258911 
	C22.511055,308.669891 13.639185,323.015106 5.277925,337.650452 
	C1.757528,343.812439 1.238503,350.754883 5.123707,357.187958 
	C12.730879,369.783752 20.515844,382.272675 28.281157,394.772339 
	C35.957447,407.128662 43.522961,419.559845 51.492050,431.725647 
	C55.229671,437.431580 59.195736,443.242859 64.142151,447.840240 
	C70.990074,454.204956 79.772980,456.542175 89.214134,456.008636 
	C92.136589,455.843506 95.074463,455.950897 98.939705,455.979034 
	C125.065254,455.984955 151.190826,455.973053 177.316330,456.010406 
	C183.201584,456.018799 187.745697,453.536621 190.134293,448.279846 
	C191.672821,444.893860 192.855377,441.004303 192.885864,437.329590 
	C193.106750,410.707153 193.080627,384.081482 192.936157,357.457886 
	C192.889084,348.782440 186.669815,343.032379 177.954727,343.007996 
	C164.642502,342.970703 151.330170,342.975677 138.236145,342.311676 
z"/>
<path fill="#77B255" opacity="1.000000" stroke="none" 
	d="
M98.005272,455.933502 
	C95.074463,455.950897 92.136589,455.843506 89.214134,456.008636 
	C79.772980,456.542175 70.990074,454.204956 64.142151,447.840240 
	C59.195736,443.242859 55.229671,437.431580 51.492050,431.725647 
	C43.522961,419.559845 35.957447,407.128662 28.281157,394.772339 
	C20.515844,382.272675 12.730879,369.783752 5.123707,357.187958 
	C1.238503,350.754883 1.757528,343.812439 5.277925,337.650452 
	C13.639185,323.015106 22.511055,308.669891 31.261349,294.258911 
	C41.181870,277.920654 51.227436,261.658112 61.064625,245.270218 
	C61.522926,244.506729 60.880375,242.211105 60.071125,241.695633 
	C53.455929,237.481934 46.781982,233.336212 39.922276,229.537521 
	C33.177479,225.802490 31.080843,220.067093 32.057693,212.925827 
	C32.917957,206.636826 36.741951,202.547501 42.805019,201.016129 
	C56.563519,197.541122 70.395134,194.356613 84.184151,191.001083 
	C94.016594,188.608368 103.809914,186.053314 113.653152,183.706863 
	C128.738525,180.110764 143.750229,176.074127 158.988739,173.297668 
	C169.291901,171.420441 177.815201,173.433594 180.964188,187.034210 
	C188.212540,218.340057 195.632385,249.606216 202.998825,280.884674 
	C204.644531,287.872498 206.459625,294.821930 208.006866,301.830963 
	C209.319214,307.775818 207.192825,312.857666 202.740433,316.617004 
	C198.492828,320.203430 193.198441,321.594055 188.044418,318.917755 
	C179.211029,314.330994 170.656265,309.207611 161.739975,304.171448 
	C153.977219,316.768280 146.106689,329.539978 137.795151,342.727966 
	C133.449799,349.065582 129.366898,354.877899 125.673309,360.927917 
	C112.671974,382.223694 99.701073,403.539520 86.926430,424.971649 
	C79.782883,436.956390 83.010155,447.886566 98.005272,455.933502 
z"/>
<path fill="#77B255" opacity="1.000000" stroke="none" 
	d="
M179.030685,31.857506 
	C184.763214,18.739351 197.919113,7.813097 212.735916,7.944901 
	C235.893188,8.150898 259.054108,8.083182 282.212494,7.954180 
	C290.338409,7.908916 298.508026,7.775241 306.574463,6.907824 
	C317.935242,5.686152 324.656830,10.849652 329.394104,20.677643 
	C336.267609,34.937576 343.821228,48.868279 350.978973,62.993019 
	C358.382812,77.603401 365.650421,92.282791 373.002106,106.919685 
	C374.309845,109.523315 375.737213,112.066849 377.460205,115.295738 
	C383.902893,112.128258 390.415466,109.240044 396.612701,105.786102 
	C402.145813,102.702301 407.811615,100.569572 413.977966,102.616798 
	C422.124268,105.321358 425.998138,113.820801 423.301727,122.243484 
	C416.591400,143.204224 409.768219,164.128815 403.054626,185.088486 
	C398.323578,199.858810 393.639954,214.644882 389.040619,229.456680 
	C384.033630,245.581314 376.535004,250.100082 360.379272,244.722168 
	C340.864410,238.226059 321.314941,231.833755 301.777954,225.404068 
	C292.325256,222.293152 282.856110,219.231659 273.414612,216.087158 
	C266.491547,213.781403 259.679260,211.106216 252.675125,209.090775 
	C245.319031,206.974014 241.662064,201.811890 241.219269,194.844421 
	C240.833313,188.771027 243.853134,183.936081 249.728516,181.035446 
	C257.817261,177.042130 265.717224,172.666489 274.378265,168.095657 
	C267.329041,154.832642 260.545013,142.068619 253.557144,128.731995 
	C252.653610,125.672409 252.340347,122.989708 251.195053,120.728409 
	C238.287643,95.243736 225.261673,69.819054 212.234299,44.395298 
	C211.177139,42.332188 209.971115,40.329536 208.670593,38.409660 
	C202.870773,29.847790 195.102753,27.301750 185.261490,30.521982 
	C183.253845,31.178917 181.111130,31.423071 179.030685,31.857506 
z"/>
<path fill="#77B255" opacity="1.000000" stroke="none" 
	d="
M494.047241,317.964722 
	C505.479370,333.841095 506.068237,350.231506 496.917694,367.416687 
	C486.758667,386.495819 476.902557,405.737640 467.051270,424.978638 
	C463.183502,432.532898 459.614899,440.243805 456.043030,447.945007 
	C453.147858,454.187256 448.249969,457.000183 441.527710,457.000183 
	C406.198944,457.000092 370.870148,457.000916 335.541382,457.001434 
	C333.572906,457.001465 331.604462,457.001434 329.002869,457.001434 
	C329.002869,465.647858 328.616821,473.941559 329.104492,482.183594 
	C329.663818,491.636932 325.639893,496.612793 318.198517,499.306213 
	C311.005585,501.909729 305.719666,498.030548 301.088257,493.491882 
	C286.456451,479.153137 272.039520,464.595001 257.553741,450.107483 
	C245.065170,437.617523 232.576126,425.127838 220.143143,412.582703 
	C218.535507,410.960602 217.081833,409.120361 215.866714,407.186493 
	C211.356400,400.008209 211.948395,394.787445 217.954483,388.571503 
	C229.503693,376.618591 241.017868,364.629944 252.703827,352.811584 
	C266.693024,338.663940 280.780792,324.611786 294.973663,310.668732 
	C298.716705,306.991608 302.805023,303.586243 307.091644,300.561890 
	C312.673187,296.623871 322.099854,298.787506 325.774963,304.547729 
	C327.888580,307.860535 329.332520,311.260712 329.120514,315.525391 
	C328.715698,323.670837 329.008453,331.850983 329.352661,340.737305 
	C343.703552,341.608551 357.713318,341.772461 371.723541,341.873962 
	C372.485260,341.879517 373.250824,341.363464 374.014587,341.090210 
	C374.014587,341.090210 373.818024,341.013947 374.190430,341.122528 
	C377.465912,341.725952 380.367249,342.638794 383.272247,342.650543 
	C410.388000,342.760315 437.504395,342.738312 464.620514,342.685883 
	C467.937073,342.679474 471.275818,342.445312 474.564667,342.014343 
	C484.566772,340.703766 490.046661,335.497345 492.126129,325.670441 
	C492.673828,323.082275 493.401947,320.532257 494.047241,317.964722 
z"/>
<path fill="#3E721D" opacity="1.000000" stroke="none" 
	d="
M493.987549,317.617004 
	C493.401947,320.532257 492.673828,323.082275 492.126129,325.670441 
	C490.046661,335.497345 484.566772,340.703766 474.564667,342.014343 
	C471.275818,342.445312 467.937073,342.679474 464.620514,342.685883 
	C437.504395,342.738312 410.388000,342.760315 383.272247,342.650543 
	C380.367249,342.638794 377.465912,341.725952 374.228424,341.024170 
	C367.592499,330.349213 361.362000,319.837585 354.968323,309.426147 
	C349.323212,300.233673 351.520355,290.751862 360.631256,285.255157 
	C383.111572,271.692505 405.331726,257.677826 428.120300,244.656631 
	C438.131714,238.936188 446.746826,238.793304 454.077057,251.131851 
	C467.222961,273.259460 480.629974,295.231964 493.987549,317.617004 
z"/>
<path fill="#3E721D" opacity="1.000000" stroke="none" 
	d="
M178.740540,32.064919 
	C181.111130,31.423071 183.253845,31.178917 185.261490,30.521982 
	C195.102753,27.301750 202.870773,29.847790 208.670593,38.409660 
	C209.971115,40.329536 211.177139,42.332188 212.234299,44.395298 
	C225.261673,69.819054 238.287643,95.243736 251.195053,120.728409 
	C252.340347,122.989708 252.653610,125.672409 253.312775,128.490265 
	C246.693481,139.495483 240.205963,150.227509 233.505661,160.824997 
	C228.597122,168.588623 219.301178,170.725067 211.378662,165.847946 
	C188.696503,151.884720 165.968124,137.988495 143.533096,123.635818 
	C134.566025,117.899185 131.061172,109.734619 137.319016,99.476357 
	C148.584183,81.009727 160.240463,62.782066 171.652451,44.404331 
	C174.095398,40.470219 176.193466,36.321945 178.740540,32.064919 
z"/>
<path fill="#3E721D" opacity="1.000000" stroke="none" 
	d="
M98.472488,455.956268 
	C83.010155,447.886566 79.782883,436.956390 86.926430,424.971649 
	C99.701073,403.539520 112.671974,382.223694 125.673309,360.927917 
	C129.366898,354.877899 133.449799,349.065582 137.686020,343.053497 
	C151.330170,342.975677 164.642502,342.970703 177.954727,343.007996 
	C186.669815,343.032379 192.889084,348.782440 192.936157,357.457886 
	C193.080627,384.081482 193.106750,410.707153 192.885864,437.329590 
	C192.855377,441.004303 191.672821,444.893860 190.134293,448.279846 
	C187.745697,453.536621 183.201584,456.018799 177.316330,456.010406 
	C151.190826,455.973053 125.065254,455.984955 98.472488,455.956268 
z"/>
<path fill="#80FF80" opacity="1.000000" stroke="none" 
	d="
M373.546722,341.050812 
	C373.250824,341.363464 372.485260,341.879517 371.723541,341.873962 
	C357.713318,341.772461 343.703552,341.608551 329.370636,341.202332 
	C343.724670,340.968323 358.401764,340.989868 373.546722,341.050812 
z"/>
</svg>